<svg xmlns="http://www.w3.org/2000/svg" width="134" height="40" viewBox="0 0 134 40" fill="none"><g clip-path="url(#clip0_2404_2469)"><path d="M15.0269 18.6813L29.6271 0.561661C29.6686 0.511701 29.6951 0.45091 29.7033 0.38642C29.7116 0.32193 29.7013 0.256414 29.6738 0.197558C29.6462 0.138702 29.6025 0.0889464 29.5477 0.0541278C29.493 0.0193091 29.4294 0.000871279 29.3646 0.000977015H19.93C19.8797 0.00131096 19.83 0.0128276 19.7846 0.0346993C19.7392 0.0565711 19.6992 0.0882546 19.6675 0.127473L15.0917 5.87448C15.0597 5.9138 15.0194 5.94549 14.9737 5.96725C14.928 5.98902 14.878 6.00031 14.8275 6.00031C14.7769 6.00031 14.7269 5.98902 14.6812 5.96725C14.6355 5.94549 14.5952 5.9138 14.5632 5.87448L10.1136 0.130892C10.0818 0.0905996 10.0414 0.0579977 9.99539 0.0355068C9.94935 0.0130158 9.89884 0.00121376 9.84763 0.000977015H0.341473C0.279307 0.00266897 0.218787 0.0213761 0.166461 0.0550739C0.114136 0.0887718 0.0719981 0.136177 0.0446086 0.192159C0.0172191 0.248141 0.00562088 0.310568 0.0110692 0.372683C0.0165175 0.434799 0.0388048 0.494238 0.075519 0.544567L7.38926 9.77534L14.5052 18.6813C14.5372 18.7194 14.5772 18.7501 14.6222 18.7711C14.6673 18.7921 14.7164 18.803 14.7661 18.803C14.8158 18.803 14.8649 18.7921 14.9099 18.7711C14.955 18.7501 14.9949 18.7194 15.0269 18.6813Z" fill="#140047"></path><path d="M0.235139 39.4632L14.9138 21.1043C14.9202 21.0964 14.9282 21.0901 14.9374 21.0857C14.9465 21.0814 14.9565 21.0791 14.9666 21.0791C14.9767 21.0791 14.9867 21.0814 14.9959 21.0857C15.005 21.0901 15.0131 21.0964 15.0195 21.1043L19.7316 27.0085C19.8044 27.1004 19.844 27.2143 19.844 27.3316C19.844 27.4489 19.8044 27.5628 19.7316 27.6547L10.7369 38.8957C10.4401 39.266 10.0643 39.5648 9.63703 39.7701C9.2098 39.9754 8.74208 40.082 8.26832 40.082H0.53178C0.459995 40.0826 0.389534 40.0627 0.328617 40.0246C0.2677 39.9865 0.218842 39.9318 0.187742 39.867C0.156643 39.8021 0.144586 39.7297 0.152978 39.6582C0.161371 39.5867 0.189866 39.5191 0.235139 39.4632Z" fill="#6633F2"></path><path d="M26.7333 18.841L41.313 0.567458C41.3574 0.517019 41.3859 0.454589 41.395 0.38798C41.4042 0.32137 41.3935 0.253537 41.3644 0.192968C41.3353 0.132398 41.289 0.0817797 41.2314 0.0474457C41.1737 0.0131117 41.1072 -0.00341374 41.0403 -6.34993e-05H33.88C33.2069 -0.00186423 32.542 0.148779 31.9351 0.440625C31.3282 0.73247 30.7948 1.15798 30.3748 1.68541L20.8005 13.6751L16.2656 19.364L25.5911 19.388C25.81 19.3877 26.0262 19.3384 26.2238 19.2438C26.4214 19.1491 26.5954 19.0115 26.7333 18.841Z" fill="#6633F2"></path><path d="M25.7365 20.7178H16.3906L20.8232 26.2562L30.4828 38.4443C30.8868 38.9555 31.4009 39.3684 31.9867 39.652C32.5725 39.9356 33.2147 40.0826 33.8652 40.0819H40.9641C41.0449 40.0861 41.1252 40.0666 41.1951 40.0257C41.265 39.9849 41.3216 39.9245 41.3577 39.8519C41.3939 39.7793 41.4082 39.6977 41.3989 39.6171C41.3895 39.5365 41.3569 39.4604 41.3051 39.3981L26.8924 21.2785C26.755 21.103 26.5794 20.9613 26.3791 20.8642C26.1788 20.767 25.959 20.7169 25.7365 20.7178Z" fill="#140047"></path><path d="M62.3589 3.00493V4.91604C62.358 4.96713 62.3371 5.01582 62.3007 5.05163C62.2644 5.08744 62.2155 5.1075 62.1645 5.10749H58.5639C58.5382 5.10703 58.5128 5.11176 58.489 5.12138C58.4652 5.13101 58.4436 5.14535 58.4254 5.16354C58.4073 5.18173 58.393 5.2034 58.3834 5.22725C58.3738 5.2511 58.3691 5.27665 58.3695 5.30237V17.0938C58.3696 17.1449 58.3495 17.194 58.3138 17.2304C58.2781 17.2669 58.2296 17.2878 58.1786 17.2887H55.6793C55.6284 17.2878 55.5798 17.2669 55.5441 17.2304C55.5084 17.194 55.4884 17.1449 55.4884 17.0938V5.30237C55.4884 5.25068 55.4679 5.20112 55.4314 5.16457C55.395 5.12803 55.3456 5.10749 55.294 5.10749H51.7139C51.6885 5.10795 51.6633 5.10333 51.6398 5.09391C51.6162 5.0845 51.5947 5.07047 51.5766 5.05264C51.5586 5.03482 51.5442 5.01356 51.5344 4.99011C51.5246 4.96665 51.5195 4.94147 51.5195 4.91604V3.00493C51.5195 2.95325 51.54 2.90368 51.5764 2.86714C51.6129 2.83059 51.6623 2.81006 51.7139 2.81006H62.1645C62.2158 2.81094 62.2647 2.83175 62.301 2.86811C62.3372 2.90446 62.358 2.95352 62.3589 3.00493Z" fill="#140047"></path><path d="M73.2146 12.1605H65.2837C65.257 12.1604 65.2305 12.1658 65.206 12.1765C65.1815 12.1871 65.1595 12.2027 65.1412 12.2223C65.123 12.2419 65.109 12.265 65.1 12.2902C65.0911 12.3155 65.0875 12.3423 65.0893 12.369C65.1575 13.275 65.4303 13.9519 65.894 14.3964C66.4017 14.8763 67.0787 15.1346 67.7762 15.1143C68.3706 15.1369 68.9561 14.964 69.4435 14.622C69.841 14.3309 70.1273 13.9123 70.255 13.4357C70.2649 13.3941 70.2884 13.357 70.3218 13.3303C70.3551 13.3037 70.3965 13.289 70.4391 13.2887H73.0987C73.1277 13.2884 73.1563 13.2947 73.1825 13.3072C73.2087 13.3197 73.2317 13.338 73.2498 13.3608C73.2678 13.3835 73.2805 13.4101 73.2868 13.4385C73.2931 13.4668 73.2929 13.4963 73.2862 13.5246C73.127 14.217 72.816 14.8651 72.3758 15.422C71.8737 16.0594 71.2257 16.566 70.4868 16.8989C69.6117 17.2785 68.6638 17.4597 67.7107 17.4295C66.7577 17.3994 65.823 17.1587 64.9734 16.7246C64.1224 16.2606 63.4254 15.5571 62.9685 14.7006C62.4767 13.7514 62.2316 12.6931 62.2559 11.6237C62.2289 10.5453 62.474 9.47748 62.9685 8.51943C63.4215 7.66007 64.1194 6.95547 64.9734 6.4955C65.8827 6.02342 66.8957 5.78828 67.9194 5.81174C68.9402 5.78418 69.9509 6.0196 70.8551 6.4955C71.6691 6.93881 72.3416 7.60365 72.7952 8.41345C73.2599 9.26343 73.4949 10.2204 73.4771 11.1895C73.4747 11.4645 73.4507 11.7388 73.4055 12.01C73.3949 12.0528 73.3704 12.0908 73.3358 12.1181C73.3012 12.1453 73.2586 12.1602 73.2146 12.1605ZM69.8527 8.77926C69.3244 8.29933 68.6319 8.04216 67.9194 8.06131C67.5618 8.04389 67.2043 8.09802 66.8678 8.22056C66.5313 8.34309 66.2225 8.53157 65.9594 8.77501C65.6963 9.01846 65.4842 9.31198 65.3354 9.63848C65.1866 9.96498 65.1041 10.3179 65.0928 10.6767C65.0909 10.7036 65.0945 10.7306 65.1034 10.756C65.1123 10.7814 65.1263 10.8048 65.1445 10.8246C65.1626 10.8444 65.1847 10.8603 65.2092 10.8714C65.2337 10.8824 65.2602 10.8883 65.2871 10.8887H70.4016C70.4526 10.8887 70.5015 10.8686 70.5378 10.8328C70.5742 10.797 70.5951 10.7483 70.596 10.6972C70.6176 10.3427 70.5624 9.9876 70.4341 9.6565C70.3058 9.3254 70.1074 9.02612 69.8527 8.77926Z" fill="#140047"></path><path d="M83.7585 6.97429C84.6857 7.73558 85.3169 8.79916 85.5418 9.97942C85.5479 10.0079 85.5476 10.0374 85.5408 10.0658C85.5341 10.0941 85.521 10.1206 85.5027 10.1432C85.4844 10.1659 85.4612 10.1841 85.435 10.1966C85.4087 10.2091 85.3799 10.2155 85.3509 10.2153H82.6913C82.6484 10.2142 82.607 10.1988 82.5737 10.1716C82.5404 10.1444 82.517 10.1068 82.5072 10.0649C82.3881 9.56182 82.1049 9.11303 81.7025 8.78967C81.1965 8.40636 80.5688 8.22046 79.9363 8.2666C79.8146 8.27074 79.6935 8.28677 79.5749 8.31446C78.1053 8.65634 77.3688 9.75378 77.3688 11.6068C77.3688 13.4598 78.1087 14.5709 79.5919 14.9059C79.7042 14.9301 79.8182 14.9449 79.9329 14.9504C80.5608 14.9928 81.1829 14.8071 81.6855 14.4273C82.0967 14.1076 82.3886 13.6584 82.514 13.1521C82.5227 13.1095 82.5457 13.0713 82.5793 13.0439C82.6129 13.0165 82.6548 13.0016 82.6981 13.0016H85.3577C85.3868 13.0015 85.4155 13.0079 85.4418 13.0204C85.4681 13.0328 85.4912 13.0511 85.5095 13.0737C85.5279 13.0963 85.5409 13.1228 85.5476 13.1512C85.5544 13.1795 85.5547 13.209 85.5486 13.2375C85.3237 14.4178 84.6926 15.4814 83.7654 16.2427C82.7243 17.0604 81.4285 17.483 80.1068 17.4358C79.0818 17.4551 78.069 17.2115 77.1642 16.7281C76.3127 16.2633 75.6157 15.5585 75.1594 14.7008C74.6629 13.7458 74.4166 12.68 74.4433 11.6033C74.4175 10.5246 74.6638 9.45687 75.1594 8.49908C75.6155 7.64731 76.3132 6.95016 77.1642 6.49566C78.0723 6.02358 79.0842 5.78842 80.1068 5.81189C81.4224 5.75757 82.7151 6.16906 83.7585 6.97429Z" fill="#140047"></path><path d="M96.9985 7.05638C97.7759 7.91792 98.1646 9.12704 98.1646 10.6837V17.094C98.1646 17.1457 98.1441 17.1952 98.1076 17.2318C98.0712 17.2683 98.0218 17.2889 97.9702 17.2889H95.4948C95.4435 17.288 95.3946 17.2672 95.3583 17.2308C95.3221 17.1945 95.3013 17.1454 95.3004 17.094V11.0119C95.3498 10.2505 95.1057 9.49905 94.6185 8.91279C94.373 8.65919 94.0761 8.46117 93.748 8.33204C93.4198 8.20291 93.068 8.14564 92.7159 8.16407C92.3504 8.14797 91.9858 8.21109 91.6468 8.34916C91.3079 8.48722 91.0027 8.69696 90.7519 8.96407C90.2609 9.49741 90.0154 10.2621 90.0154 11.2581V17.094C90.0154 17.1457 89.995 17.1952 89.9585 17.2318C89.9221 17.2683 89.8726 17.2889 89.8211 17.2889H87.3252C87.2739 17.288 87.225 17.2672 87.1888 17.2308C87.1525 17.1945 87.1317 17.1454 87.1309 17.094V2.30766C87.1317 2.25626 87.1525 2.2072 87.1888 2.17084C87.225 2.13449 87.2739 2.11367 87.3252 2.11279H89.8211C89.8726 2.11279 89.9221 2.13332 89.9585 2.16987C89.995 2.20642 90.0154 2.25598 90.0154 2.30766V7.40852C90.0185 7.44699 90.033 7.48364 90.0572 7.51367C90.0814 7.5437 90.1141 7.5657 90.1509 7.57679C90.1878 7.58788 90.2271 7.58754 90.2638 7.57582C90.3005 7.56409 90.3328 7.54153 90.3564 7.51108C90.6465 7.0647 91.032 6.68866 91.485 6.41023C92.2029 5.97101 93.031 5.74681 93.8718 5.76407C94.4554 5.73812 95.0376 5.84032 95.5777 6.06354C96.1177 6.28677 96.6026 6.62562 96.9985 7.05638Z" fill="#140047"></path><path d="M54.6113 23.5147L58.2495 34.3044C58.2632 34.3419 58.288 34.3742 58.3207 34.397C58.3533 34.4198 58.3921 34.4321 58.4319 34.4321C58.4717 34.4321 58.5105 34.4198 58.5431 34.397C58.5757 34.3742 58.6006 34.3419 58.6143 34.3044L62.2729 23.5147C62.2852 23.4765 62.3094 23.4434 62.342 23.42C62.3745 23.3966 62.4136 23.3843 62.4536 23.3848H65.1234C65.1541 23.3848 65.1844 23.3922 65.2118 23.4063C65.2392 23.4204 65.2628 23.4408 65.2808 23.4658C65.2988 23.4908 65.3106 23.5198 65.3152 23.5503C65.3198 23.5808 65.3172 23.6119 65.3075 23.6412L60.3498 37.7301C60.337 37.7679 60.3127 37.8008 60.2803 37.8241C60.2479 37.8474 60.209 37.86 60.1691 37.86H56.7253C56.6855 37.86 56.6466 37.8474 56.6142 37.8241C56.5818 37.8008 56.5574 37.7679 56.5446 37.7301L51.5699 23.6412C51.5595 23.6122 51.5562 23.5811 51.5603 23.5506C51.5644 23.52 51.5759 23.4909 51.5936 23.4657C51.6113 23.4406 51.6349 23.4201 51.6622 23.406C51.6896 23.3919 51.7199 23.3846 51.7506 23.3848H54.4272C54.4676 23.3846 54.507 23.397 54.54 23.4203C54.5729 23.4436 54.5979 23.4766 54.6113 23.5147Z" fill="#140047"></path><path d="M72.2644 27.0322C72.7039 27.3188 73.0771 27.6965 73.3589 28.1399C73.3831 28.1686 73.4152 28.1897 73.4511 28.2006C73.4871 28.2115 73.5254 28.2117 73.5615 28.2013C73.5975 28.1908 73.6298 28.17 73.6544 28.1415C73.6789 28.1131 73.6947 28.078 73.6999 28.0407V26.6937C73.6999 26.6426 73.7199 26.5936 73.7556 26.5571C73.7913 26.5207 73.8399 26.4998 73.8908 26.4989H76.3765C76.4274 26.4998 76.476 26.5207 76.5117 26.5571C76.5474 26.5936 76.5674 26.6426 76.5674 26.6937V37.6647C76.5679 37.6901 76.5633 37.7154 76.5539 37.739C76.5445 37.7626 76.5305 37.7841 76.5127 37.8023C76.4949 37.8204 76.4737 37.8348 76.4503 37.8447C76.4269 37.8545 76.4018 37.8595 76.3765 37.8595H73.8976C73.8723 37.8595 73.8472 37.8545 73.8238 37.8447C73.8004 37.8348 73.7792 37.8204 73.7614 37.8023C73.7436 37.7841 73.7296 37.7626 73.7202 37.739C73.7108 37.7154 73.7062 37.6901 73.7067 37.6647V36.2972C73.7016 36.2598 73.6858 36.2248 73.6612 36.1964C73.6366 36.1679 73.6044 36.1471 73.5683 36.1366C73.5322 36.1261 73.4939 36.1264 73.458 36.1373C73.422 36.1481 73.39 36.1692 73.3657 36.198C73.0823 36.6419 72.7095 37.0215 72.2712 37.3125C71.5404 37.7835 70.6846 38.0219 69.8163 37.9963C68.9103 38.0133 68.0176 37.7765 67.2386 37.3125C66.4589 36.8286 65.8377 36.1261 65.4519 35.292C65.0028 34.3204 64.7823 33.2583 64.8075 32.1878C64.7771 31.1097 64.9953 30.0392 65.4451 29.0595C65.8309 28.2254 66.452 27.523 67.2317 27.039C68.0108 26.5751 68.9035 26.3383 69.8094 26.3553C70.6768 26.3306 71.5316 26.5663 72.2644 27.0322ZM68.541 29.7672C67.9664 30.4377 67.6731 31.3052 67.7227 32.1878C67.6749 33.0618 67.9684 33.9202 68.541 34.5809C69.1225 35.1439 69.9003 35.4568 70.7086 35.453C71.5169 35.4492 72.2918 35.1289 72.8679 34.5604C73.1596 34.2372 73.3848 33.8594 73.5305 33.4487C73.6762 33.0381 73.7396 32.6025 73.7169 32.1672C73.7585 31.2886 73.4535 30.4289 72.8679 29.7741C72.5912 29.4812 72.2559 29.2503 71.8839 29.0965C71.512 28.9427 71.1118 28.8695 70.7096 28.8818C70.3054 28.8631 69.9018 28.932 69.5265 29.0836C69.1511 29.2352 68.8127 29.466 68.5342 29.7604L68.541 29.7672Z" fill="#140047"></path><path d="M83.2423 26.9606C83.8873 26.5706 84.6207 26.3517 85.3734 26.3247C85.3996 26.3243 85.4257 26.3291 85.4501 26.3388C85.4745 26.3486 85.4967 26.3631 85.5154 26.3816C85.5342 26.4 85.549 26.4221 85.5592 26.4463C85.5693 26.4706 85.5746 26.4967 85.5746 26.523V29.2239C85.575 29.2493 85.5704 29.2746 85.561 29.2982C85.5516 29.3218 85.5376 29.3433 85.5199 29.3615C85.5021 29.3796 85.4809 29.394 85.4575 29.4039C85.4341 29.4137 85.409 29.4188 85.3836 29.4188H84.7358C82.6218 29.4188 81.5659 30.4034 81.5682 32.3726V37.6512C81.5682 37.7029 81.5477 37.7525 81.5113 37.789C81.4748 37.8256 81.4254 37.8461 81.3738 37.8461H78.878C78.8523 37.8466 78.8268 37.8418 78.803 37.8322C78.7793 37.8226 78.7577 37.8082 78.7395 37.7901C78.7214 37.7719 78.7071 37.7502 78.6975 37.7263C78.6879 37.7025 78.6832 37.6769 78.6836 37.6512V26.694C78.6836 26.6423 78.7041 26.5927 78.7405 26.5562C78.777 26.5196 78.8264 26.4991 78.878 26.4991H81.3738C81.4251 26.5 81.474 26.5208 81.5103 26.5571C81.5466 26.5935 81.5673 26.6426 81.5682 26.694V28.0341C81.571 28.0726 81.5852 28.1093 81.6089 28.1396C81.6325 28.17 81.6646 28.1926 81.7011 28.2047C81.7376 28.2168 81.7768 28.2177 81.8139 28.2075C81.8509 28.1972 81.8841 28.1761 81.9092 28.147C82.2723 27.6683 82.7252 27.2653 83.2423 26.9606Z" fill="#140047"></path><path d="M86.8239 22.1024C87.1929 21.8163 87.6462 21.6611 88.1127 21.6611C88.5792 21.6611 89.0325 21.8163 89.4016 22.1024C89.5627 22.2452 89.6902 22.4219 89.7751 22.6199C89.86 22.8179 89.9001 23.0323 89.8926 23.2477C89.8977 23.4588 89.8564 23.6684 89.7715 23.8617C89.6867 24.0549 89.5603 24.227 89.4016 24.3657C89.0316 24.6496 88.5786 24.8034 88.1127 24.8034C87.6468 24.8034 87.1939 24.6496 86.8239 24.3657C86.6651 24.227 86.5388 24.0549 86.4539 23.8617C86.369 23.6684 86.3277 23.4588 86.3329 23.2477C86.3253 23.0323 86.3654 22.8179 86.4503 22.6199C86.5352 22.4219 86.6628 22.2452 86.8239 22.1024ZM89.5516 26.6939V37.6648C89.5516 37.7165 89.5311 37.7661 89.4947 37.8026C89.4582 37.8392 89.4088 37.8597 89.3572 37.8597H86.8614C86.8357 37.8602 86.8102 37.8554 86.7864 37.8458C86.7627 37.8362 86.7411 37.8218 86.7229 37.8037C86.7048 37.7855 86.6905 37.7638 86.6809 37.74C86.6713 37.7161 86.6666 37.6906 86.667 37.6648V26.6939C86.667 26.6422 86.6875 26.5926 86.7239 26.5561C86.7604 26.5196 86.8098 26.499 86.8614 26.499H89.3572C89.4073 26.5016 89.4545 26.5232 89.4893 26.5594C89.5242 26.5955 89.544 26.6436 89.5448 26.6939H89.5516Z" fill="#140047"></path><path d="M98.5397 27.0326C98.9777 27.3211 99.3506 27.6984 99.6342 28.1403C99.6577 28.1706 99.6897 28.1932 99.726 28.205C99.7624 28.2169 99.8015 28.2175 99.8383 28.2068C99.875 28.1962 99.9077 28.1746 99.9321 28.1451C99.9566 28.1155 99.9715 28.0793 99.9752 28.0411V26.6941C99.9761 26.6427 99.9968 26.5937 100.033 26.5573C100.069 26.521 100.118 26.5001 100.17 26.4993H102.645C102.697 26.4993 102.746 26.5198 102.782 26.5563C102.819 26.5929 102.839 26.6424 102.839 26.6941V37.6651C102.84 37.6908 102.835 37.7163 102.825 37.7402C102.816 37.764 102.802 37.7857 102.783 37.8039C102.765 37.8221 102.744 37.8364 102.72 37.846C102.696 37.8557 102.671 37.8604 102.645 37.8599H100.17C100.118 37.8599 100.069 37.8394 100.032 37.8029C99.9957 37.7663 99.9752 37.7167 99.9752 37.6651V36.2975C99.9715 36.2594 99.9566 36.2231 99.9321 36.1936C99.9077 36.164 99.875 36.1425 99.8383 36.1318C99.8015 36.1212 99.7624 36.1218 99.726 36.1337C99.6897 36.1455 99.6577 36.1681 99.6342 36.1984C99.3498 36.6415 98.9772 37.021 98.5397 37.3129C97.8089 37.7839 96.9531 38.0223 96.0847 37.9967C95.1788 38.0137 94.2861 37.7769 93.507 37.3129C92.7263 36.8292 92.104 36.1268 91.717 35.2924C91.2679 34.3208 91.0474 33.2587 91.0725 32.1881C91.0454 31.1093 91.2671 30.0388 91.7204 29.0599C92.1075 28.2256 92.7298 27.5232 93.5104 27.0394C94.2895 26.5755 95.1822 26.3387 96.0882 26.3557C96.9543 26.3317 97.8079 26.5674 98.5397 27.0326ZM94.8163 29.7676C94.2417 30.4381 93.9485 31.3056 93.998 32.1881C93.9502 33.0622 94.2437 33.9205 94.8163 34.5813C95.3972 35.1441 96.1745 35.4569 96.9822 35.4531C97.79 35.4493 98.5643 35.1291 99.1398 34.5608C99.4315 34.2376 99.6567 33.8598 99.8024 33.4491C99.9481 33.0384 100.011 32.6029 99.9888 32.1676C100.03 31.289 99.7254 30.4293 99.1398 29.7745C98.565 29.2024 97.788 28.8814 96.9781 28.8814C96.1682 28.8814 95.3912 29.2024 94.8163 29.7745V29.7676Z" fill="#140047"></path><path d="M114.309 27.0533C115.086 27.5336 115.707 28.2311 116.095 29.0602C116.544 30.033 116.765 31.0962 116.74 32.1678C116.765 33.2384 116.545 34.3005 116.095 35.2721C115.71 36.1062 115.088 36.8087 114.309 37.2926C113.53 37.7566 112.637 37.9934 111.731 37.9764C110.866 38.0029 110.013 37.7644 109.286 37.2926C108.851 37.001 108.482 36.6214 108.202 36.1781C108.178 36.1493 108.145 36.1282 108.109 36.1175C108.073 36.1067 108.034 36.1068 107.998 36.1177C107.962 36.1286 107.93 36.1498 107.905 36.1787C107.881 36.2077 107.866 36.2431 107.861 36.2807V37.6482C107.862 37.6736 107.857 37.6989 107.848 37.7225C107.838 37.7461 107.824 37.7676 107.806 37.7858C107.789 37.8039 107.767 37.8183 107.744 37.8282C107.721 37.838 107.696 37.8431 107.67 37.8431H105.154C105.128 37.8431 105.103 37.838 105.08 37.8282C105.057 37.8183 105.035 37.8039 105.018 37.7858C105 37.7676 104.986 37.7461 104.976 37.7225C104.967 37.6989 104.962 37.6736 104.963 37.6482V22.879C104.963 22.8282 104.983 22.7795 105.019 22.7436C105.055 22.7077 105.103 22.6875 105.154 22.6875H107.653C107.704 22.6875 107.752 22.7077 107.788 22.7436C107.824 22.7795 107.844 22.8282 107.844 22.879V28.0345C107.849 28.0718 107.865 28.1068 107.89 28.1353C107.914 28.1638 107.946 28.1845 107.982 28.195C108.019 28.2055 108.057 28.2053 108.093 28.1944C108.129 28.1835 108.161 28.1624 108.185 28.1337C108.465 27.6933 108.835 27.317 109.269 27.0294C109.997 26.5604 110.849 26.3221 111.714 26.3456C112.628 26.3326 113.527 26.5779 114.309 27.0533ZM108.673 29.7884C108.087 30.4432 107.782 31.3029 107.824 32.1815C107.801 32.6168 107.864 33.0523 108.01 33.463C108.156 33.8737 108.381 34.2515 108.673 34.5747C109.249 35.1432 110.024 35.4635 110.832 35.4673C111.64 35.4711 112.418 35.1582 112.999 34.5952C113.572 33.9344 113.866 33.0761 113.818 32.202C113.867 31.3195 113.574 30.4519 112.999 29.7815C112.722 29.4874 112.385 29.2565 112.011 29.1043C111.637 28.9521 111.234 28.8823 110.831 28.8995C110.43 28.8846 110.031 28.9546 109.659 29.1048C109.287 29.255 108.951 29.4821 108.673 29.7713V29.7884Z" fill="#140047"></path><path d="M121.158 22.8785V37.6648C121.158 37.7165 121.138 37.7661 121.101 37.8026C121.065 37.8392 121.015 37.8597 120.964 37.8597H118.468C118.442 37.8602 118.417 37.8554 118.393 37.8458C118.369 37.8362 118.347 37.8218 118.329 37.8036C118.311 37.7855 118.297 37.7638 118.287 37.7399C118.278 37.7161 118.273 37.6905 118.273 37.6648V22.8785C118.273 22.8531 118.279 22.8279 118.288 22.8044C118.298 22.781 118.313 22.7597 118.331 22.7419C118.349 22.7241 118.37 22.71 118.394 22.7006C118.417 22.6912 118.442 22.6866 118.468 22.687H120.964C121.015 22.687 121.064 22.7071 121.1 22.7429C121.136 22.7787 121.157 22.8274 121.158 22.8785Z" fill="#140047"></path><path d="M133.659 32.7352H125.721C125.694 32.7351 125.668 32.7406 125.643 32.7512C125.619 32.7618 125.597 32.7774 125.578 32.797C125.56 32.8166 125.546 32.8397 125.537 32.8649C125.528 32.8902 125.525 32.917 125.527 32.9437C125.532 33.6957 125.819 34.4182 126.331 34.9677C126.839 35.4476 127.516 35.7059 128.213 35.6856C128.808 35.7082 129.393 35.5353 129.881 35.1933C130.279 34.903 130.566 34.4841 130.692 34.007C130.702 33.9654 130.726 33.9283 130.759 33.9016C130.792 33.875 130.834 33.8603 130.876 33.86H133.536C133.565 33.8602 133.594 33.867 133.62 33.8799C133.646 33.8928 133.669 33.9114 133.687 33.9344C133.705 33.9574 133.718 33.9842 133.724 34.0127C133.73 34.0412 133.73 34.0708 133.723 34.0993C133.563 34.7903 133.252 35.4371 132.813 35.9933C132.313 36.6298 131.667 37.1364 130.931 37.4702C130.056 37.8498 129.108 38.031 128.155 38.0008C127.202 37.9707 126.267 37.73 125.417 37.2959C124.567 36.8329 123.87 36.1305 123.413 35.2753C122.917 34.3212 122.672 33.2566 122.7 32.1813C122.669 31.0978 122.911 30.0239 123.406 29.06C123.859 28.2019 124.557 27.4985 125.411 27.0394C126.32 26.5674 127.333 26.3322 128.357 26.3557C129.377 26.3281 130.388 26.5635 131.292 27.0394C132.106 27.4828 132.779 28.1476 133.232 28.9574C133.698 29.8084 133.933 30.7666 133.914 31.7369C133.912 32.0118 133.888 32.2862 133.843 32.5574C133.837 32.6038 133.816 32.647 133.782 32.6794C133.749 32.7118 133.705 32.7315 133.659 32.7352ZM130.297 29.3506C129.768 28.8706 129.076 28.6135 128.363 28.6326C128.006 28.6152 127.648 28.6693 127.312 28.7919C126.975 28.9144 126.667 29.1029 126.403 29.3463C126.14 29.5898 125.928 29.8833 125.779 30.2098C125.631 30.5363 125.548 30.8892 125.537 31.248C125.534 31.2752 125.538 31.3025 125.546 31.3283C125.555 31.3542 125.569 31.3779 125.587 31.3981C125.605 31.4184 125.628 31.4346 125.652 31.4458C125.677 31.457 125.704 31.463 125.731 31.4634H130.846C130.897 31.4625 130.946 31.4417 130.982 31.4053C131.018 31.369 131.039 31.3199 131.04 31.2685C131.061 30.9134 131.005 30.5581 130.875 30.2269C130.746 29.8958 130.546 29.5968 130.29 29.3506H130.297Z" fill="#140047"></path></g><defs><clipPath id="clip0_2404_2469"><rect width="134" height="40" fill="white"></rect></clipPath></defs></svg>